<svg width="54" height="50" viewBox="0 0 54 50" fill="none" xmlns="http://www.w3.org/2000/svg">
<path d="M22.4 26.6667V31.3334H20V33.6667H23.6V36H26V33.6667H28.4V36H30.8V33.6072C31.9358 33.4906 32.9901 32.9575 33.7639 32.1088C34.5377 31.26 34.9774 30.1542 35 29C34.994 28.2613 34.8119 27.5349 34.4692 26.8823C34.1266 26.2298 33.6334 25.6704 33.0315 25.2515C33.4626 24.8292 33.8057 24.324 34.0407 23.7656C34.2757 23.2072 34.3979 22.6069 34.4 22.0001C34.3829 20.9512 34.0192 19.9382 33.3668 19.1226C32.7144 18.3069 31.8108 17.7354 30.8 17.4991V15.0001H28.4V17.3334H26V15.0001H23.6V17.3334H20V19.6667H22.4V26.6667ZM30.2 31.3334H24.8V26.6667H30.2C30.812 26.6667 31.399 26.9125 31.8318 27.3501C32.2646 27.7877 32.5077 28.3812 32.5077 29C32.5077 29.6189 32.2646 30.2124 31.8318 30.6499C31.399 31.0875 30.812 31.3334 30.2 31.3334ZM24.8 19.6667H29.6C30.212 19.6667 30.799 19.9126 31.2318 20.3501C31.6646 20.7877 31.9077 21.3812 31.9077 22.0001C31.9077 22.6189 31.6646 23.2124 31.2318 23.65C30.799 24.0876 30.212 24.3334 29.6 24.3334H24.8V19.6667Z" fill="#6D7178"/>
</svg>
