<svg width="54" height="50" viewBox="0 0 54 50" fill="none" xmlns="http://www.w3.org/2000/svg">
<path d="M36 17.3813H18C17.8718 17.3781 17.7442 17.4003 17.6245 17.4464C17.5049 17.4926 17.3955 17.5618 17.3026 17.6503C17.2098 17.7387 17.1352 17.8446 17.0833 17.9619C17.0314 18.0791 17.0031 18.2055 17 18.3337V31.6669C17.0031 31.7951 17.0314 31.9215 17.0833 32.0387C17.1352 32.156 17.2098 32.2618 17.3026 32.3503C17.3955 32.4387 17.5049 32.508 17.6245 32.5542C17.7442 32.6003 17.8718 32.6225 18 32.6193H36C36.1282 32.6225 36.2558 32.6003 36.3754 32.5542C36.4951 32.508 36.6045 32.4387 36.6973 32.3503C36.7902 32.2618 36.8647 32.156 36.9167 32.0387C36.9686 31.9215 36.9969 31.7951 37 31.6669V18.3337C36.9969 18.2055 36.9686 18.0791 36.9167 17.9619C36.8647 17.8446 36.7902 17.7387 36.6973 17.6503C36.6045 17.5618 36.4951 17.4926 36.3754 17.4464C36.2558 17.4003 36.1282 17.3781 36 17.3813ZM35 27.8574C34.2234 27.839 33.4713 28.1295 32.9088 28.6653C32.3463 29.201 32.0195 29.938 32 30.7145H22C21.9805 29.938 21.6536 29.201 21.0911 28.6653C20.5286 28.1295 19.7765 27.839 19 27.8574V22.1432C19.7765 22.1616 20.5286 21.871 21.0911 21.3353C21.6536 20.7996 21.9805 20.0626 22 19.286H32C32.0195 20.0626 32.3463 20.7996 32.9088 21.3353C33.4713 21.871 34.2234 22.1616 35 22.1432V27.8574Z" fill="#6D7178"/>
<path d="M27 21.1908C26.2466 21.1908 25.51 21.4142 24.8836 21.8328C24.2571 22.2514 23.7688 22.8464 23.4805 23.5425C23.1922 24.2386 23.1167 25.0045 23.2637 25.7435C23.4107 26.4824 23.7735 27.1612 24.3063 27.694C24.8391 28.2268 25.5179 28.5896 26.2568 28.7366C26.9958 28.8836 27.7618 28.8081 28.4578 28.5198C29.1539 28.2315 29.7489 27.7432 30.1675 27.1167C30.5861 26.4903 30.8095 25.7537 30.8095 25.0003C30.8095 23.99 30.4082 23.021 29.6937 22.3066C28.9793 21.5922 28.0104 21.1908 27 21.1908ZM27 26.905C26.6233 26.905 26.255 26.7933 25.9418 26.584C25.6286 26.3747 25.3844 26.0772 25.2403 25.7292C25.0961 25.3812 25.0584 24.9982 25.1319 24.6287C25.2054 24.2592 25.3868 23.9198 25.6532 23.6534C25.9195 23.3871 26.2589 23.2056 26.6284 23.1321C26.9979 23.0587 27.3809 23.0964 27.7289 23.2405C28.077 23.3847 28.3745 23.6288 28.5838 23.9421C28.7931 24.2553 28.9048 24.6236 28.9048 25.0003C28.9048 25.5055 28.7041 25.9899 28.3469 26.3471C27.9897 26.7043 27.5052 26.905 27 26.905Z" fill="#6D7178"/>
</svg>
